<mxfile host="65bd71144e">
    <diagram id="H9lXlMixqnCbQPA4KN9o" name="第 1 页">
        <mxGraphModel dx="989" dy="613" grid="1" gridSize="10" guides="1" tooltips="1" connect="1" arrows="1" fold="1" page="1" pageScale="1" pageWidth="2339" pageHeight="3300" math="0" shadow="0">
            <root>
                <mxCell id="0"/>
                <mxCell id="1" parent="0"/>
                <mxCell id="47" value="" style="endArrow=classic;html=1;" edge="1" parent="1">
                    <mxGeometry width="50" height="50" relative="1" as="geometry">
                        <mxPoint x="200" y="240" as="sourcePoint"/>
                        <mxPoint x="200" y="690" as="targetPoint"/>
                    </mxGeometry>
                </mxCell>
                <mxCell id="48" value="" style="endArrow=classic;html=1;" edge="1" parent="1">
                    <mxGeometry width="50" height="50" relative="1" as="geometry">
                        <mxPoint x="400" y="240" as="sourcePoint"/>
                        <mxPoint x="400" y="690" as="targetPoint"/>
                    </mxGeometry>
                </mxCell>
                <mxCell id="50" value="发送方A 客户机" style="text;html=1;align=center;verticalAlign=middle;resizable=0;points=[];autosize=1;strokeColor=none;fillColor=none;" vertex="1" parent="1">
                    <mxGeometry x="150" y="200" width="100" height="20" as="geometry"/>
                </mxCell>
                <mxCell id="51" value="接收方B 服务器" style="text;html=1;align=center;verticalAlign=middle;resizable=0;points=[];autosize=1;strokeColor=none;fillColor=none;" vertex="1" parent="1">
                    <mxGeometry x="350" y="200" width="100" height="20" as="geometry"/>
                </mxCell>
                <mxCell id="52" value="主动关闭&lt;br&gt;应用程序关闭连接&lt;br&gt;发送FIN报文段，FIN=1&lt;br&gt;seq=1" style="text;html=1;align=center;verticalAlign=middle;resizable=0;points=[];autosize=1;strokeColor=none;fillColor=none;" vertex="1" parent="1">
                    <mxGeometry x="40" y="240" width="140" height="60" as="geometry"/>
                </mxCell>
                <mxCell id="53" value="" style="endArrow=classic;html=1;" edge="1" parent="1">
                    <mxGeometry width="50" height="50" relative="1" as="geometry">
                        <mxPoint x="200" y="260" as="sourcePoint"/>
                        <mxPoint x="400" y="340" as="targetPoint"/>
                    </mxGeometry>
                </mxCell>
                <mxCell id="54" value="FIN" style="text;html=1;align=center;verticalAlign=middle;resizable=0;points=[];autosize=1;strokeColor=none;fillColor=none;" vertex="1" parent="1">
                    <mxGeometry x="285" y="280" width="30" height="20" as="geometry"/>
                </mxCell>
                <mxCell id="55" value="&lt;span style=&quot;white-space: pre&quot;&gt;&#9;&lt;/span&gt;接收FIN报文段，&lt;br&gt;发送ACK报文段 ACK=1&lt;br&gt;seq=v，ack=u+1&lt;br&gt;通知主机应用程序关闭" style="text;html=1;align=center;verticalAlign=middle;resizable=0;points=[];autosize=1;strokeColor=none;fillColor=none;" vertex="1" parent="1">
                    <mxGeometry x="400" y="320" width="140" height="60" as="geometry"/>
                </mxCell>
                <mxCell id="56" value="" style="endArrow=classic;html=1;" edge="1" parent="1">
                    <mxGeometry width="50" height="50" relative="1" as="geometry">
                        <mxPoint x="400" y="340" as="sourcePoint"/>
                        <mxPoint x="200" y="440" as="targetPoint"/>
                    </mxGeometry>
                </mxCell>
                <mxCell id="57" value="ACK" style="text;html=1;align=center;verticalAlign=middle;resizable=0;points=[];autosize=1;strokeColor=none;fillColor=none;" vertex="1" parent="1">
                    <mxGeometry x="240" y="370" width="40" height="20" as="geometry"/>
                </mxCell>
                <mxCell id="58" value="接收SYN+ACK报文段&lt;br&gt;发送ACK报文段，ACK=1&lt;br&gt;seq=x+1 ack=y+1" style="text;html=1;align=center;verticalAlign=middle;resizable=0;points=[];autosize=1;strokeColor=none;fillColor=none;" vertex="1" parent="1">
                    <mxGeometry x="35" y="430" width="150" height="50" as="geometry"/>
                </mxCell>
                <mxCell id="60" value="被动关闭：&lt;br&gt;应用程序关闭连接&lt;br&gt;发送FIN+ACK报文段，ACK=1.FIN=1&lt;br&gt;seq=W,ack=U+1" style="text;html=1;align=center;verticalAlign=middle;resizable=0;points=[];autosize=1;strokeColor=none;fillColor=none;" vertex="1" parent="1">
                    <mxGeometry x="410" y="425" width="210" height="60" as="geometry"/>
                </mxCell>
                <mxCell id="61" value="" style="endArrow=classic;html=1;" edge="1" parent="1">
                    <mxGeometry width="50" height="50" relative="1" as="geometry">
                        <mxPoint x="400" y="440" as="sourcePoint"/>
                        <mxPoint x="200" y="550" as="targetPoint"/>
                    </mxGeometry>
                </mxCell>
                <mxCell id="62" value="接受FIN加ACK报文，&lt;br&gt;发送ACK报文段，ACK=1&lt;br&gt;seq=u+1 ack=w+1" style="text;html=1;align=center;verticalAlign=middle;resizable=0;points=[];autosize=1;strokeColor=none;fillColor=none;" vertex="1" parent="1">
                    <mxGeometry x="30" y="540" width="150" height="50" as="geometry"/>
                </mxCell>
                <mxCell id="63" value="FIN+ACK" style="text;html=1;align=center;verticalAlign=middle;resizable=0;points=[];autosize=1;strokeColor=none;fillColor=none;" vertex="1" parent="1">
                    <mxGeometry x="225" y="470" width="70" height="20" as="geometry"/>
                </mxCell>
                <mxCell id="64" value="" style="endArrow=classic;html=1;" edge="1" parent="1">
                    <mxGeometry width="50" height="50" relative="1" as="geometry">
                        <mxPoint x="200" y="560" as="sourcePoint"/>
                        <mxPoint x="400" y="620" as="targetPoint"/>
                    </mxGeometry>
                </mxCell>
                <mxCell id="65" value="连接关闭：&lt;br&gt;接收ACK报文段" style="text;html=1;align=center;verticalAlign=middle;resizable=0;points=[];autosize=1;strokeColor=none;fillColor=none;" vertex="1" parent="1">
                    <mxGeometry x="390" y="625" width="100" height="30" as="geometry"/>
                </mxCell>
                <mxCell id="66" value="ACK" style="text;html=1;align=center;verticalAlign=middle;resizable=0;points=[];autosize=1;strokeColor=none;fillColor=none;" vertex="1" parent="1">
                    <mxGeometry x="280" y="560" width="40" height="20" as="geometry"/>
                </mxCell>
            </root>
        </mxGraphModel>
    </diagram>
</mxfile>